<?xml version="1.0" encoding="UTF-8"?>
<svg id="Layer_1" data-name="Layer 1" xmlns="http://www.w3.org/2000/svg" xmlns:xlink="http://www.w3.org/1999/xlink" viewBox="0 0 698.66 698.66">
  <defs>
    <style>
      .cls-1 {
        stroke-width: 8px;
      }

      .cls-1, .cls-2, .cls-3, .cls-4, .cls-5 {
        stroke-miterlimit: 10;
      }

      .cls-1, .cls-2, .cls-3, .cls-5 {
        stroke: #000;
      }

      .cls-1, .cls-4 {
        stroke-linecap: round;
      }

      .cls-6 {
        fill: #c18951;
      }

      .cls-7 {
        fill: url(#radial-gradient);
      }

      .cls-8 {
        fill: #eadfd3;
      }

      .cls-9 {
        fill: #b1824e;
      }

      .cls-10 {
        letter-spacing: 0em;
      }

      .cls-11 {
        fill: #e3ae76;
      }

      .cls-12, .cls-4 {
        fill: #fff;
      }

      .cls-2 {
        fill: #121212;
      }

      .cls-13 {
        font-family: SFPro-Medium, 'SF Pro';
        font-size: 34.61px;
        font-variation-settings: 'wdth' 100, 'opsz' 28, 'wght' 510;
        font-weight: 500;
      }

      .cls-13, .cls-3 {
        fill: #c2fc69;
      }

      .cls-14 {
        fill: #b78043;
      }

      .cls-4 {
        stroke: #fff;
        stroke-width: 2px;
      }

      .cls-15 {
        letter-spacing: -.02em;
      }

      .cls-16 {
        letter-spacing: -.01em;
      }

      .cls-17 {
        letter-spacing: 0em;
      }

      .cls-18 {
        letter-spacing: 0em;
      }
    </style>
    <radialGradient id="radial-gradient" cx="227.69" cy="710.76" fx="227.69" fy="710.76" r="145.42" gradientTransform="translate(-92.63 -80.2) scale(1.97 .88)" gradientUnits="userSpaceOnUse">
      <stop offset="0" stop-color="#121212"/>
      <stop offset="1" stop-color="#c2fc69"/>
    </radialGradient>
  </defs>
  <rect class="cls-3" x="-154.1" y="-65.66" width="1020.66" height="829.97"/>
  <text class="cls-13" transform="translate(234.36 407.6)"><tspan x="0" y="0">en</tspan><tspan class="cls-16" x="37.13" y="0">t</tspan><tspan x="47.84" y="0">er pas</tspan><tspan class="cls-17" x="138.73" y="0">s</tspan><tspan class="cls-18" x="155.43" y="0">w</tspan><tspan class="cls-10" x="181.03" y="0">o</tspan><tspan class="cls-15" x="199.94" y="0">r</tspan><tspan x="210.57" y="0">d</tspan></text>
  <polygon class="cls-11" points="605.66 216.25 485.62 154.36 266.81 153.96 386.52 218.82 605.66 216.25"/>
  <path class="cls-5" d="M326.64,186.2c6.1,3.45,12.19,6.91,18.29,10.36l11.66,4.09,8.84,5.9,5.6,2.23,4.31,2.18,5.8,2.94,3.88,3.08h-6.96l-5.88-.97-5.85.15-5.6,1.01-5.91.37-5.76-1.5-5.75,1.5h-5.66l-5.92-1.17-11.23.36-6.33.51-5.66-.87-17.16.36-5.79-.61h-5.72l-5.75.61h-5.75l-5.98.55-5.72-.91h-5.89l-5.66.59-5.85-.72-5.76-.16-5.79.91-4.88-.78c34.6-10,69.21-20,103.81-30Z"/>
  <path class="cls-8" d="M189.37,215.79c42.6-12.08,85.2-24.16,127.81-36.24,3.36,2.01,6.73,4.01,10.09,6.02-36.13,10.27-72.26,20.55-108.39,30.82-9.84-.2-19.67-.4-29.51-.59Z"/>
  <polygon class="cls-8" points="218.88 216.8 221.34 215.74 222.26 215.74 228.12 216.8 234.42 215.57 239.98 215.57 245.89 216.8 251.77 215.84 257.69 215.79 257.69 235.53 189.53 235.53 189.37 215.9 218.88 216.8"/>
  <g>
    <g>
      <rect class="cls-9" x="387.28" y="217.53" width="5.9" height="325.06"/>
      <polygon class="cls-6" points="391.74 216.86 395.41 217.28 398.99 216.9 402.56 216.82 406.14 217.02 409.72 216.61 413.3 216.48 416.88 217.26 420.45 217.04 424.03 216.65 427.61 216.48 431.19 216.79 434.76 216.93 438.34 217.24 441.92 216.6 445.5 217.29 449.08 216.71 452.65 217.14 456.23 217.27 459.81 216.72 463.39 216.45 466.97 216.52 470.54 216.7 474.12 217.33 477.7 216.86 481.28 217.08 484.85 216.96 488.43 217.41 492.01 217.35 495.59 217.08 499.17 216.6 502.74 216.75 506.32 216.63 509.9 217.27 513.48 216.77 517.06 217.4 520.63 216.58 524.21 216.88 527.79 217.35 531.37 216.78 534.94 216.64 538.52 216.65 542.1 216.89 545.68 216.82 549.26 216.5 552.83 217.13 556.41 217.12 559.99 217.07 563.57 217.13 567.15 217.26 570.72 216.71 574.3 216.6 577.88 217.06 581.46 217.4 585.03 216.9 588.61 216.57 592.19 217.02 595.77 216.7 599.35 217 602.92 217.13 606.66 216.79 606.21 220.57 606.44 224.18 606.68 227.79 606.7 231.4 606.79 235.01 606.69 238.63 606.49 242.24 606.31 245.85 606.49 249.47 606.87 253.08 606.96 256.69 607.13 260.3 606.96 263.91 606.87 267.53 606.65 271.14 606.8 274.75 606.94 278.36 607.2 281.98 607.39 285.59 607.49 289.2 606.97 292.82 607.34 296.43 606.74 300.04 607.36 303.65 606.84 307.27 607.52 310.88 607.01 314.49 606.99 318.11 607.8 321.71 607.83 325.32 607.12 328.94 607.85 332.55 607.48 336.17 607.44 339.78 607.34 343.39 607.74 347 607.35 350.62 607.76 354.23 608.12 357.84 607.46 361.46 607.65 365.07 608.09 368.68 608.2 372.29 607.41 375.91 607.79 379.52 607.92 383.13 608.09 386.74 608.51 390.35 607.87 393.97 608.26 397.58 608.14 401.19 608.1 404.81 608.6 408.41 608.14 412.03 608.26 415.64 608.27 419.26 608.15 422.87 608.73 426.48 608.56 430.09 608.21 433.71 608.13 437.32 608.17 440.93 608.04 444.55 609 448.15 608.41 451.77 608.64 455.38 608.38 459 608.57 462.61 608.84 466.22 608.62 469.83 609.15 473.44 609.09 477.05 608.58 480.67 609.04 484.28 608.42 487.9 608.61 491.51 609.2 495.12 609.1 498.73 609.16 502.34 609.26 505.96 609.21 509.57 608.58 513.19 609.29 516.79 608.66 520.41 609.14 524.02 609.4 527.63 608.83 531.25 609 534.86 608.85 538.48 609.26 542.02 605.74 541.82 602.17 542.21 598.58 542.03 595.01 542.71 591.43 542.83 587.83 541.92 584.26 542.79 580.67 542.18 577.09 542.26 573.51 542.44 569.93 542.23 566.35 542.87 562.77 543 559.19 543.02 555.61 543.23 552.03 543.31 548.45 543.34 544.86 543.2 541.28 542.96 537.71 543.55 534.12 543.16 530.54 543.26 526.96 543.37 523.37 543.39 519.79 543.07 516.21 543.15 512.63 543.46 509.04 543.06 505.47 543.91 501.88 543.37 498.31 544.05 494.73 544.2 491.14 543.45 487.57 544.31 483.98 544.23 480.4 543.92 476.81 543.76 473.23 543.62 469.65 543.98 466.06 543.66 462.49 544.16 458.91 544.14 455.33 544.35 451.75 544.79 448.16 544.11 444.59 544.9 441 544.72 437.42 544.41 433.84 544.94 430.26 544.73 426.67 544.26 423.09 544.59 419.51 544.92 415.93 545 412.36 545.4 408.77 545.4 405.19 545.48 401.61 545.1 398.03 545.3 394.44 544.75 390.86 544.98 387.49 545.08 387.63 541.69 387.01 538.07 387.83 534.47 387.3 530.86 387.28 527.25 387.68 523.64 387.51 520.03 387.65 516.43 388.06 512.82 387.93 509.21 387.99 505.6 387.96 501.99 388.07 498.39 387.63 494.77 388.04 491.17 387.74 487.56 387.64 483.95 388.06 480.34 388.42 476.74 388.03 473.12 388.17 469.52 388.02 465.91 387.99 462.3 388.42 458.69 388.71 455.09 388.93 451.48 388.42 447.87 389.04 444.27 388.32 440.65 388.8 437.05 389.08 433.44 389.24 429.84 389.33 426.23 388.51 422.61 389.12 419.01 389.11 415.4 389.57 411.8 389.43 408.18 389.5 404.58 389.69 400.97 389.79 397.36 389.83 393.75 389.83 390.15 389.9 386.54 389.04 382.92 389.96 379.32 389.88 375.71 390.11 372.11 389.61 368.49 389.46 364.88 389.65 361.27 389.41 357.66 390.04 354.06 389.87 350.45 389.65 346.84 390.4 343.24 389.84 339.62 389.83 336.01 390.55 332.41 390.66 328.81 390.58 325.2 389.9 321.58 390.73 317.98 390.66 314.37 390.75 310.76 390.46 307.15 390.78 303.55 390.26 299.93 390.27 296.32 390.67 292.72 390.7 289.11 390.66 285.5 390.93 281.9 391.01 278.29 390.67 274.68 390.82 271.07 391.6 267.47 391.22 263.86 391.23 260.25 391.25 256.64 391.71 253.04 391.3 249.42 391.75 245.82 391.29 242.2 391.54 238.6 391.41 234.99 391.95 231.39 391.6 227.77 392.01 224.17 392.13 220.56 391.74 216.86"/>
      <path class="cls-11" d="M97.18,215.08c49.91-13.61,99.82-27.22,149.72-40.83,22.92,1.52,45.84,3.05,68.77,4.57,4.36,2.11,8.72,4.22,13.08,6.33-36.62,10.41-73.24,20.83-109.86,31.24-40.57-.43-81.14-.87-121.7-1.3Z"/>
      <path class="cls-14" d="M96.64,214.57c50.09-13.44,100.17-26.88,150.26-40.32-.03.01-.06.02-.1.03-2.05.56-36.95,10.07-73.9,20.14-36.98,10.08-71.9,19.61-73.96,20.18-.77,0-1.54-.02-2.31-.03Z"/>
      <polygon class="cls-11" points="91.58 216.15 94.92 215.32 98.35 215.76 101.65 215.07 104.97 214.52 108.31 214.15 111.69 214.26 115.19 213.41 118.76 213.57 122.29 213.22 125.84 212.95 129.41 213.46 132.95 213.06 136.49 212.65 140.04 212.66 143.58 212.94 147.13 213.24 150.67 213.51 154.21 213.61 157.78 213.05 161.28 214.04 164.82 214.23 168.39 213.97 171.93 214.17 175.43 214.86 178.95 215.23 182.49 215.44 186.04 215.6 189.49 216.25 189.32 219.79 188.43 223.23 187.56 226.74 183.87 226.41 180.24 226.2 176.61 226.02 172.97 226.03 169.33 226.34 165.7 226.11 162.07 225.71 158.44 225.55 154.8 225.71 151.16 225.75 147.53 225.31 143.89 225.67 140.26 225.31 136.63 225.23 132.99 225.46 129.36 225.18 125.71 225.79 122.07 225.59 118.45 224.98 114.81 225.27 111.17 225.38 107.54 225.32 103.92 224.45 100.29 224.27 96.65 224.32 92.79 224.82 91.9 220.46 91.58 216.15"/>
      <polygon class="cls-11" points="388.65 545.62 384.7 545.73 381.08 545.34 377.47 544.94 373.85 545.17 370.23 545.17 366.62 545.35 363 545.7 359.38 544.91 355.77 544.88 352.15 545.46 348.54 544.95 344.92 545.24 341.3 545.34 337.68 544.84 334.07 545.61 330.45 545.68 326.84 545.45 323.22 545.01 319.6 545.6 315.98 544.92 312.37 545.52 308.75 544.97 305.13 545.44 301.52 545.71 297.9 545.2 294.28 545.51 290.66 545.1 287.05 545.64 283.43 545.16 279.82 545.65 276.21 545.2 272.6 545.17 268.98 545.76 265.37 545.08 261.75 545.02 258.13 544.83 254.51 545.61 250.9 545.67 247.29 545.4 243.67 545.06 240.06 545.05 236.44 545.69 232.82 545.07 229.2 545.47 225.59 545.65 221.97 544.86 218.36 545.37 214.74 545.09 211.12 545.75 207.5 545.08 203.89 545 200.27 545.33 196.65 544.98 193.03 545.73 189.41 545.73 185.79 545.23 182.17 544.96 178.56 545.36 174.94 545.66 171.32 545.78 167.7 544.97 164.08 544.93 160.46 545.03 156.84 544.8 153.22 544.94 149.6 545.14 145.98 545.14 142.36 545.24 138.74 545.43 135.12 545.17 131.5 545.4 127.88 545.29 124.26 544.99 120.64 545.33 117.01 545.04 113.39 545.29 109.77 545.58 106.15 544.88 102.52 545.47 98.9 545.73 95.27 545.45 91.42 545.52 92.01 541.68 91.58 538.06 91.83 534.44 91.52 530.83 91.63 527.21 91.23 523.6 92.1 519.99 91.51 516.37 92.11 512.76 91.9 509.14 91.58 505.53 92.01 501.91 91.44 498.3 91.92 494.68 91.84 491.07 91.24 487.45 92.03 483.84 91.85 480.22 91.28 476.61 92.06 472.99 91.53 469.38 91.99 465.76 91.97 462.14 91.82 458.53 91.7 454.91 91.96 451.3 91.21 447.68 91.83 444.07 91.42 440.45 91.79 436.84 91.42 433.22 91.86 429.6 91.19 425.99 91.82 422.37 91.62 418.76 91.32 415.14 92.07 411.52 91.78 407.91 91.19 404.3 91.73 400.69 91.72 397.08 91.29 393.47 92.14 389.85 92.03 386.24 91.24 382.62 91.37 379.01 91.61 375.39 91.38 371.78 91.49 368.17 91.98 364.55 91.86 360.94 91.98 357.32 91.79 353.7 91.19 350.09 91.4 346.47 91.54 342.86 91.39 339.24 91.2 335.62 91.47 332.01 92.06 328.39 91.84 324.78 91.63 321.16 91.73 317.54 91.29 313.92 91.57 310.31 91.28 306.69 91.15 303.07 91.83 299.45 91.77 295.83 91.9 292.21 92.06 288.59 92.02 284.98 91.95 281.36 91.18 277.74 91.39 274.12 91.65 270.5 91.17 266.88 91.32 263.26 91.9 259.65 91.73 256.03 91.51 252.41 91.58 248.79 91.66 245.17 91.16 241.55 91.55 237.92 92.09 234.3 91.4 230.68 91.75 227.06 91.54 223.44 91.28 219.81 91.9 216.44 95.26 215.76 98.87 216.59 102.49 215.9 106.11 216.43 109.73 216.37 113.34 216.27 116.96 216.53 120.57 215.98 124.19 216.67 127.8 216.5 131.42 216.3 135.04 215.77 138.66 216.08 142.27 216.64 145.89 216.05 149.51 215.82 153.12 215.8 156.74 216.61 160.36 215.74 163.97 216.58 167.59 216.68 171.21 216.42 174.82 215.79 178.44 215.85 182.06 216.66 185.68 216.56 189.29 215.68 192.91 216.4 196.53 216.31 200.14 215.74 203.75 215.73 207.36 216.41 210.98 216.21 214.59 215.94 218.21 215.74 221.83 216.63 225.44 216.53 229.06 216.23 232.67 216.65 236.28 216.28 239.9 216.68 243.52 216.35 247.14 216.63 250.75 216.48 254.37 216.32 257.98 216.49 261.6 215.87 265.22 216.53 268.84 215.68 272.45 216.29 276.07 216.56 279.69 216.63 283.31 216.38 286.93 216.42 290.54 216.23 294.16 216.22 297.78 215.73 301.4 215.9 305.02 215.95 308.64 215.91 312.26 215.8 315.88 216.42 319.5 216.55 323.12 215.88 326.74 216.11 330.36 215.71 333.98 216.51 337.6 215.77 341.22 216.21 344.84 216.52 348.46 216.41 352.08 216.04 355.7 216.17 359.32 216.04 362.94 215.79 366.57 215.68 370.19 216.14 373.81 216.3 377.43 216.31 381.06 216.46 384.69 215.93 388.08 216.42 388.55 219.8 388.16 223.41 388.59 227.03 388.71 230.64 388.28 234.26 388.13 237.87 388.4 241.49 388.22 245.1 388.45 248.71 388.71 252.33 388.7 255.94 388.4 259.56 388.01 263.18 388.02 266.79 388 270.41 388.35 274.02 387.86 277.64 388.02 281.25 387.87 284.86 388.41 288.48 388.35 292.1 388.54 295.71 388.75 299.33 387.82 302.94 388.79 306.56 388.43 310.17 388.79 313.79 388.71 317.41 387.89 321.02 388.28 324.64 388.02 328.25 388.46 331.87 388.38 335.48 388.31 339.1 388.34 342.72 388.76 346.33 387.87 349.95 387.91 353.56 388.69 357.17 388.72 360.78 388.27 364.39 388.41 368 387.87 371.62 388.26 375.24 388.71 378.85 388.59 382.47 388.27 386.08 388 389.69 388.39 393.31 388.4 396.92 388.16 400.54 388.1 404.15 388.21 407.77 388.57 411.38 388.63 415 388.12 418.61 388.58 422.23 388.47 425.85 387.95 429.46 388.38 433.08 388.42 436.7 387.87 440.32 388.36 443.93 387.93 447.55 388.64 451.17 388.1 454.79 388.12 458.4 388.56 462.02 388.07 465.64 388.1 469.26 388.77 472.88 388.01 476.5 388.19 480.12 387.94 483.74 388.48 487.36 388.76 490.97 388.66 494.59 388.37 498.21 388.47 501.83 388.55 505.44 387.97 509.07 388.8 512.68 388.23 516.3 388.15 519.93 388.16 523.55 388.42 527.17 388.67 530.79 388.31 534.41 387.96 538.03 388.81 541.64 388.65 545.62"/>
      <path class="cls-14" d="M218.35,216.4c0-.3-65.13-1.14-121.71-1.83-1.77.43-3.55.86-5.32,1.29,25.4-.21,45.58.08,59.77.39,0,0,22.84.52,63.52.23,1.06,0,3.75-.03,3.75-.09Z"/>
    </g>
    <polygon class="cls-6" points="587.11 217.29 595.58 217.29 594.55 217.55 588.05 217.55 587.11 217.29"/>
  </g>
  <path class="cls-8" d="M313.52,179.55c4.58,2.01,9.16,4.01,13.75,6.02l-108.39,30.82c-12.32-.27-24.65-.54-36.97-.81,43.87-12.01,87.74-24.02,131.61-36.02Z"/>
  <path class="cls-8" d="M181.91,215.57v23.14h87.07v-22.53l-5.35.71-5.95-1.1-5.87-.05-6.01.64-5.83-.81h-6.04l-6.03.9-5.65-.73-1.14-.17-2.24.81c-12.32-.27-24.65-.54-36.97-.81Z"/>
  <rect class="cls-2" x="131.32" y="336.47" width="217.32" height="70.52" rx="12" ry="12"/>
  <line class="cls-4" x1="224" y1="371.62" x2="246.76" y2="371.62"/>
  <rect class="cls-12" x="179.18" y="353.48" width="29.99" height="39.11" rx="14.99" ry="14.99"/>
  <rect class="cls-12" x="261.59" y="352.07" width="29.99" height="39.11" rx="14.99" ry="14.99"/>
  <line class="cls-1" x1="194.17" y1="365.17" x2="194.17" y2="380.9"/>
  <line class="cls-1" x1="276.59" y1="363.96" x2="276.59" y2="379.69"/>
  <ellipse class="cls-7" cx="356.23" cy="544.99" rx="405.29" ry="4.68"/>
</svg>